{"glyphs":{"0":{"ha":850,"x_min":68,"x_max":792,"o":"m 516 756 q 537 744 516 756 q 576 663 557 732 q 595 541 595 595 l 595 409 q 576 286 595 355 q 516 193 557 218 q 430 168 474 168 q 344 193 386 168 q 284 286 302 218 q 265 409 265 355 l 265 541 q 284 663 265 595 q 344 756 302 732 q 429 781 386 781 q 516 756 474 781 m 430 949 q 146 842 223 949 q 68 541 68 734 l 68 409 q 146 108 68 215 q 430 0 223 0 q 714 108 637 0 q 792 409 791 215 l 792 541 q 714 842 791 734 q 430 949 637 949 z "},"1":{"ha":338,"x_min":68,"x_max":265,"o":"m 265 949 l 68 949 l 68 0 l 265 0 l 265 949 z "},"2":{"ha":762,"x_min":68,"x_max":715,"o":"m 336 388 q 264 167 262 378 l 704 167 l 704 0 l 68 0 l 68 290 q 130 503 68 443 q 338 562 193 564 l 433 562 q 516 679 523 578 q 373 783 509 779 l 94 783 l 94 949 l 393 949 q 629 880 543 949 q 715 669 715 810 q 652 456 715 517 q 444 398 590 396 l 336 388 z "},"3":{"ha":746,"x_min":68,"x_max":679,"o":"m 68 168 l 68 0 l 333 0 q 610 96 541 0 q 678 285 679 191 q 625 441 679 380 q 503 507 571 503 q 637 688 629 571 q 569 861 638 772 q 292 949 500 949 l 68 949 l 68 781 l 260 781 q 372 770 337 781 q 425 738 407 758 q 444 686 443 717 q 429 632 446 656 q 375 590 412 609 q 260 572 337 572 l 136 572 l 136 403 l 301 403 q 415 384 378 403 q 468 337 453 366 q 485 285 484 308 q 468 234 484 263 q 415 187 453 205 q 301 168 378 168 l 68 168 z "},"4":{"ha":813,"x_min":68,"x_max":778,"o":"m 543 949 l 355 949 l 68 373 l 68 203 l 481 203 l 481 0 l 678 0 l 678 203 l 778 203 l 778 373 l 678 373 l 678 543 l 481 543 l 481 373 l 256 373 l 543 949 z "},"5":{"ha":755,"x_min":68,"x_max":704,"o":"m 68 398 l 68 949 l 678 949 l 678 783 l 231 783 l 231 562 l 404 562 q 627 503 549 564 q 704 290 704 443 q 618 70 704 139 q 382 0 532 0 l 68 0 l 68 167 l 362 167 q 505 276 498 171 q 397 398 512 381 l 68 398 z "},"6":{"ha":850,"x_min":68,"x_max":788,"o":"m 427 398 q 544 374 503 398 q 585 283 585 349 q 547 194 585 217 q 445 169 508 171 q 342 194 381 171 q 285 286 302 218 q 265 398 267 354 l 427 398 m 266 562 q 284 663 269 608 q 344 756 302 732 q 463 781 386 781 l 678 781 l 678 949 l 431 949 q 146 842 223 949 q 68 541 68 734 l 68 409 q 80 267 68 351 q 146 108 92 183 q 413 0 220 5 l 476 0 q 743 108 669 5 q 788 281 788 170 q 743 454 788 392 q 458 562 666 562 l 266 562 z "},"7":{"ha":746,"x_min":68,"x_max":678,"o":"m 68 949 l 678 949 l 678 777 l 345 0 l 143 0 l 486 779 l 231 779 l 231 678 l 68 678 l 68 949 z "},"8":{"ha":876,"x_min":68,"x_max":806,"o":"m 543 385 q 596 337 581 366 q 612 285 611 308 q 596 234 611 263 q 543 187 581 205 q 437 168 507 170 q 332 187 367 170 q 278 234 294 205 q 262 285 263 263 q 278 337 263 308 q 332 385 294 366 q 437 403 367 401 q 543 385 507 401 m 499 770 q 517 764 499 770 q 552 738 534 758 q 572 686 570 717 q 556 632 573 656 q 503 591 540 609 q 437 574 476 577 q 372 591 398 577 q 318 632 334 609 q 302 686 301 656 q 322 738 304 717 q 375 770 340 758 q 432 781 410 781 q 499 770 465 781 m 460 0 q 737 96 668 0 q 806 285 806 191 q 752 441 806 380 q 630 507 699 503 q 765 688 756 571 q 696 861 766 772 q 440 949 631 945 l 435 949 q 178 861 243 945 q 109 688 109 772 q 244 507 118 571 q 122 441 176 503 q 68 285 68 380 q 137 96 68 191 q 414 0 206 0 l 460 0 z "},"9":{"ha":850,"x_min":68,"x_max":788,"o":"m 429 551 q 312 576 353 551 q 271 666 271 600 q 309 755 271 732 q 411 781 348 779 q 514 755 475 779 q 571 664 553 732 q 591 551 589 595 l 429 551 m 590 388 q 572 286 587 342 q 512 193 553 218 q 393 168 470 168 l 178 168 l 178 0 l 425 0 q 710 107 633 0 q 788 409 787 215 l 788 541 q 776 682 788 598 q 710 842 764 766 q 443 949 636 945 l 380 949 q 113 842 186 945 q 68 669 68 780 q 113 496 68 557 q 397 388 190 388 l 590 388 z "},"\u0000":{"ha":0,"x_min":0,"x_max":0,"o":""}," ":{"ha":345,"x_min":0,"x_max":0,"o":""},"!":{"ha":338,"x_min":68,"x_max":265,"o":"m 265 949 l 68 949 l 68 271 l 265 271 l 265 949 m 265 174 l 68 174 l 68 0 l 265 0 l 265 174 z "},"\"":{"ha":506,"x_min":35,"x_max":475,"o":"m 214 610 l 35 610 l 35 949 l 214 949 l 214 610 m 475 610 l 296 610 l 296 949 l 475 949 l 475 610 z "},"#":{"ha":1133,"x_min":0,"x_max":1133,"o":"m 242 383 l 304 534 l 130 534 l 198 704 l 372 704 l 472 949 l 660 949 l 560 704 l 750 704 l 850 949 l 1038 949 l 938 704 l 1133 704 l 1065 534 l 869 534 l 808 383 l 1002 383 l 935 214 l 739 214 l 652 0 l 465 0 l 551 214 l 361 214 l 275 0 l 87 0 l 174 214 l 0 214 l 68 383 l 242 383 m 492 534 l 430 383 l 620 383 l 682 534 l 492 534 z "},"$":{"ha":755,"x_min":57,"x_max":704,"o":"m 453 949 l 678 949 l 678 783 l 453 783 l 453 562 q 642 503 583 559 q 704 290 704 443 q 618 70 704 139 q 401 0 537 5 l 401 -136 l 300 -136 l 300 0 l 68 0 l 68 167 l 300 167 l 300 398 q 119 456 176 402 q 57 669 57 517 q 143 880 57 810 q 352 949 221 943 l 352 1085 l 453 1085 l 453 949 m 401 170 q 505 276 499 187 q 436 398 512 381 l 401 398 l 401 170 m 352 562 l 352 778 q 256 679 262 760 q 338 562 249 578 l 352 562 z "},"%":{"ha":852,"x_min":34,"x_max":821,"o":"m 145 0 l 530 949 l 718 949 l 333 0 l 145 0 m 34 731 q 34 832 34 731 q 200 933 34 933 q 367 731 367 933 q 200 529 367 529 q 34 731 34 529 m 176 802 q 173 792 176 802 q 170 732 170 782 q 176 661 170 682 q 200 640 182 640 q 224 661 218 640 q 231 732 231 682 q 224 802 231 782 q 200 822 218 822 q 176 802 182 822 m 488 185 q 488 286 488 185 q 655 387 488 387 q 821 185 821 387 q 655 -17 821 -17 q 488 185 488 -17 m 630 256 q 627 246 630 256 q 624 186 624 236 q 630 115 624 136 q 655 94 637 94 q 679 115 673 94 q 686 186 686 136 q 679 256 686 236 q 655 277 673 277 q 630 256 637 277 z "},"&":{"ha":1017,"x_min":67,"x_max":965,"o":"m 965 402 l 965 572 l 610 572 l 610 402 l 702 402 q 668 280 705 355 q 593 187 631 205 q 479 168 555 168 l 445 168 q 331 187 368 168 q 278 234 293 205 q 261 285 262 263 q 278 337 262 308 q 331 384 293 366 q 445 403 368 403 l 496 403 l 496 572 l 486 572 q 371 590 409 572 q 317 632 334 609 q 302 686 300 656 q 321 738 303 717 q 374 770 339 758 q 486 781 409 781 l 678 781 l 678 949 l 454 949 q 177 861 246 949 q 109 688 108 772 q 243 507 117 571 q 121 441 175 503 q 68 285 67 380 q 136 96 67 191 q 413 0 205 0 l 511 0 q 792 111 718 0 q 884 402 867 222 l 965 402 z "},"'":{"ha":242,"x_min":35,"x_max":214,"o":"m 214 610 l 35 610 l 35 949 l 214 949 l 214 610 z "},"(":{"ha":543,"x_min":68,"x_max":475,"o":"m 68 409 q 146 107 68 215 q 431 0 223 0 l 475 0 l 475 168 l 463 168 q 344 193 386 168 q 284 286 302 218 q 265 409 265 355 l 265 541 q 284 663 265 595 q 344 756 302 732 q 463 781 386 781 l 475 781 l 475 949 l 431 949 q 146 842 223 949 q 68 541 68 734 l 68 409 z "},")":{"ha":543,"x_min":68,"x_max":475,"o":"m 475 541 q 397 842 474 734 q 112 949 319 949 l 68 949 l 68 781 l 80 781 q 198 756 157 781 q 259 663 240 732 q 277 541 277 595 l 277 409 q 259 286 277 355 q 198 193 240 218 q 80 168 157 168 l 68 168 l 68 0 l 112 0 q 397 107 319 0 q 475 409 474 215 l 475 541 z "},"*":{"ha":590,"x_min":41,"x_max":545,"o":"m 545 770 l 382 718 l 484 575 l 397 515 l 291 658 l 189 509 l 101 568 l 207 715 l 41 768 l 75 871 l 240 818 l 240 994 l 350 993 l 351 815 l 514 867 l 545 770 z "},"+":{"ha":778,"x_min":68,"x_max":707,"o":"m 68 294 l 68 461 l 303 461 l 303 694 l 469 694 l 469 461 l 707 461 l 707 294 l 469 294 l 469 58 l 303 58 l 303 294 l 68 294 z "},",":{"ha":271,"x_min":37,"x_max":235,"o":"m 136 -169 q 235 0 220 -119 l 235 174 l 37 174 l 37 0 l 136 0 l 136 -169 z "},"-":{"ha":502,"x_min":31,"x_max":469,"o":"m 31 305 l 31 475 l 469 475 l 469 305 l 31 305 z "},".":{"ha":271,"x_min":37,"x_max":235,"o":"m 235 174 l 37 174 l 37 0 l 235 0 l 235 174 z "},"/":{"ha":640,"x_min":32,"x_max":605,"o":"m 32 0 l 417 949 l 605 949 l 220 0 l 32 0 z "},":":{"ha":271,"x_min":37,"x_max":235,"o":"m 235 174 l 37 174 l 37 0 l 235 0 l 235 174 m 235 610 l 37 610 l 37 436 l 235 436 l 235 610 z "},";":{"ha":271,"x_min":37,"x_max":235,"o":"m 235 610 l 37 610 l 37 436 l 235 436 l 235 610 m 136 -169 q 235 0 220 -119 l 235 174 l 37 174 l 37 0 l 136 0 l 136 -169 z "},"<":{"ha":678,"x_min":68,"x_max":632,"o":"m 248 366 l 632 203 l 632 14 l 68 272 l 68 459 l 632 713 l 632 524 l 249 366 l 248 366 z "},"=":{"ha":751,"x_min":68,"x_max":684,"o":"m 68 442 l 68 610 l 684 610 l 684 442 l 68 442 m 68 153 l 68 321 l 684 321 l 684 153 l 68 153 z "},">":{"ha":678,"x_min":68,"x_max":632,"o":"m 451 366 l 68 524 l 68 713 l 632 459 l 632 272 l 68 14 l 68 203 l 452 366 l 451 366 z "},"?":{"ha":762,"x_min":94,"x_max":715,"o":"m 433 562 q 516 679 523 578 q 373 783 509 779 l 94 783 l 94 949 l 393 949 q 629 880 543 949 q 715 669 715 810 q 652 456 715 517 q 444 398 590 396 q 377 271 391 381 l 176 271 l 176 290 q 239 503 176 443 q 433 562 298 561 m 374 174 l 176 174 l 176 0 l 374 0 l 374 174 z "},"@":{"ha":1389,"x_min":61,"x_max":1329,"o":"m 825 475 q 707 587 808 587 q 573 505 630 587 q 515 301 515 420 q 623 174 515 174 q 725 216 677 174 q 789 328 772 258 l 825 475 m 791 184 q 590 74 719 74 q 371 304 371 74 q 466 577 371 467 q 699 686 561 686 q 859 597 808 686 l 895 664 l 1015 664 l 916 258 q 911 231 911 241 q 975 183 911 183 q 1084 235 1030 183 q 1203 521 1203 346 q 1080 786 1203 682 q 753 893 954 893 q 353 745 515 893 q 186 354 186 593 q 326 21 186 146 q 701 -103 467 -103 q 1111 26 926 -103 l 1166 -53 q 704 -210 958 -210 q 271 -79 441 -210 q 61 353 61 82 q 201 755 61 584 q 757 1004 405 1004 q 1147 886 994 1004 q 1329 518 1329 746 q 1157 150 1329 288 q 937 72 1060 72 q 791 184 793 72 z "},"A":{"ha":746,"x_min":27,"x_max":713,"o":"m 455 367 l 370 811 l 286 367 l 455 367 m 254 203 l 215 0 l 27 0 l 209 949 l 532 949 l 713 0 l 526 0 l 487 203 l 254 203 z "},"B":{"ha":814,"x_min":68,"x_max":787,"o":"m 68 949 l 68 0 l 441 0 q 718 96 649 0 q 787 285 787 191 q 733 441 787 380 q 611 507 680 503 q 746 688 737 571 q 677 861 747 772 q 401 949 608 949 l 68 949 m 265 781 l 369 781 q 480 770 446 781 q 533 738 515 758 q 553 686 551 717 q 537 632 554 656 q 483 590 521 609 q 369 572 446 572 l 265 572 l 265 781 m 306 403 l 410 403 q 524 384 486 403 q 577 337 562 366 q 593 285 592 308 q 577 234 592 263 q 524 187 562 205 q 410 168 486 168 l 265 168 l 265 404 l 306 404 l 306 403 z "},"C":{"ha":746,"x_min":68,"x_max":678,"o":"m 68 409 q 146 107 68 215 q 431 0 223 0 l 678 0 l 678 168 l 463 168 q 344 193 386 168 q 284 286 302 218 q 265 409 265 355 l 265 541 q 284 663 265 595 q 344 756 302 732 q 463 781 386 781 l 678 781 l 678 949 l 431 949 q 146 842 223 949 q 68 541 68 734 l 68 409 z "},"D":{"ha":882,"x_min":68,"x_max":814,"o":"m 68 949 l 68 0 l 451 0 q 736 107 659 0 q 814 409 813 215 l 814 541 q 736 842 813 734 q 451 949 659 949 l 68 949 m 265 781 l 419 781 q 537 756 496 781 q 598 663 579 732 q 616 541 616 595 l 616 409 q 598 286 616 355 q 537 193 579 218 q 419 168 496 168 l 265 168 l 265 781 z "},"E":{"ha":746,"x_min":68,"x_max":678,"o":"m 610 398 l 610 562 l 266 562 q 284 663 269 608 q 344 756 302 732 q 463 781 386 781 l 678 781 l 678 949 l 431 949 q 146 842 223 949 q 68 541 68 734 l 68 409 q 146 107 68 215 q 431 0 223 0 l 678 0 l 678 168 l 463 168 q 344 193 386 168 q 284 286 302 218 q 265 398 267 348 l 610 398 z "},"F":{"ha":746,"x_min":68,"x_max":678,"o":"m 265 0 l 265 398 l 610 398 l 610 562 l 266 562 q 284 663 269 608 q 344 756 302 732 q 463 781 386 781 l 678 781 l 678 949 l 431 949 q 146 842 223 949 q 68 541 68 734 l 68 0 l 265 0 z "},"G":{"ha":882,"x_min":68,"x_max":814,"o":"m 814 562 l 475 562 l 475 398 l 616 398 l 616 168 l 463 168 q 344 193 386 168 q 284 286 302 218 q 265 409 265 355 l 265 541 q 284 663 265 595 q 344 756 302 732 q 463 781 386 781 l 814 781 l 814 949 l 431 949 q 146 842 223 949 q 68 541 68 734 l 68 409 q 146 107 68 215 q 431 0 223 0 l 814 0 l 814 562 z "},"H":{"ha":882,"x_min":68,"x_max":814,"o":"m 265 562 l 265 949 l 68 949 l 68 0 l 265 0 l 265 398 l 616 398 l 616 0 l 814 0 l 814 949 l 616 949 l 616 562 l 265 562 z "},"I":{"ha":338,"x_min":68,"x_max":265,"o":"m 265 949 l 68 949 l 68 0 l 265 0 l 265 949 z "},"J":{"ha":746,"x_min":68,"x_max":678,"o":"m 481 949 l 481 388 q 460 280 477 342 q 402 193 444 218 q 283 168 360 168 l 68 168 l 68 0 l 315 0 q 600 107 523 0 q 678 409 677 215 l 678 949 l 481 949 z "},"K":{"ha":848,"x_min":68,"x_max":819,"o":"m 387 567 l 595 949 l 814 949 l 553 491 l 819 0 l 598 0 l 386 397 l 386 397 l 259 397 l 259 0 l 68 0 l 68 949 l 259 949 l 259 567 l 387 567 z "},"L":{"ha":746,"x_min":68,"x_max":678,"o":"m 68 949 l 68 409 q 146 107 68 215 q 431 0 223 0 l 678 0 l 678 168 l 463 168 q 344 193 386 168 q 286 280 302 218 q 265 388 269 342 l 265 949 l 68 949 z "},"M":{"ha":1153,"x_min":68,"x_max":1085,"o":"m 265 776 l 265 0 l 68 0 l 68 949 l 420 949 l 575 138 l 730 949 l 1085 949 l 1085 0 l 888 0 l 888 790 l 709 0 l 441 0 l 265 776 z "},"N":{"ha":848,"x_min":68,"x_max":774,"o":"m 265 809 l 265 0 l 68 0 l 68 949 l 403 949 l 577 144 l 577 949 l 774 949 l 774 0 l 437 0 l 265 809 z "},"O":{"ha":949,"x_min":68,"x_max":882,"o":"m 519 0 q 804 107 726 0 q 882 409 881 215 l 882 541 q 804 842 881 734 q 519 949 726 949 l 431 949 q 146 842 223 949 q 68 541 68 734 l 68 409 q 146 107 68 215 q 431 0 223 0 l 519 0 m 487 781 q 605 756 564 781 q 666 663 647 732 q 684 541 684 595 l 684 409 q 666 286 684 355 q 605 193 647 218 q 487 168 564 168 l 463 168 q 344 193 386 168 q 284 286 302 218 q 265 409 265 355 l 265 541 q 284 663 265 595 q 344 756 302 732 q 463 781 386 781 l 487 781 z "},"P":{"ha":814,"x_min":68,"x_max":747,"o":"m 401 324 q 677 430 608 324 q 746 637 747 536 q 677 844 747 738 q 401 949 608 949 l 68 949 l 68 0 l 265 0 l 265 324 l 401 324 m 369 781 q 483 763 446 781 q 536 715 521 744 q 553 637 551 686 q 536 558 551 587 q 483 511 521 530 q 369 492 446 492 l 265 492 l 265 781 l 369 781 z "},"Q":{"ha":984,"x_min":68,"x_max":949,"o":"m 487 781 q 605 756 564 781 q 666 663 647 732 q 684 541 684 595 l 684 409 q 666 286 684 355 q 605 193 647 218 q 487 168 564 168 l 463 168 q 344 193 386 168 q 284 286 302 218 q 265 409 265 355 l 265 541 q 284 663 265 595 q 344 756 302 732 q 463 781 386 781 l 487 781 m 949 0 l 949 170 l 839 170 q 882 409 881 266 l 882 541 q 804 842 881 734 q 519 949 726 949 l 431 949 q 146 842 223 949 q 68 541 68 734 l 68 409 q 146 107 68 215 q 431 0 223 0 l 949 0 z "},"R":{"ha":814,"x_min":68,"x_max":785,"o":"m 369 781 q 483 763 446 781 q 536 715 521 744 q 553 637 551 686 q 536 558 551 587 q 483 511 521 530 q 369 492 446 492 l 265 492 l 265 781 l 369 781 m 597 0 l 785 0 l 600 362 q 677 430 650 387 q 746 637 747 536 q 677 844 747 738 q 401 949 608 949 l 68 949 l 68 0 l 265 0 l 265 324 l 401 324 q 427 325 414 324 l 597 0 z "},"S":{"ha":755,"x_min":57,"x_max":704,"o":"m 328 398 q 119 456 182 396 q 57 669 57 517 q 143 880 57 810 q 379 949 229 949 l 678 949 l 678 783 l 399 783 q 256 679 263 779 q 338 562 249 578 l 433 562 q 642 503 579 564 q 704 290 704 443 q 618 70 704 139 q 382 0 532 0 l 68 0 l 68 167 l 362 167 q 505 276 498 171 q 436 398 512 381 l 328 398 z "},"T":{"ha":814,"x_min":24,"x_max":746,"o":"m 24 780 l 24 949 l 746 949 l 746 780 l 482 780 l 482 0 l 290 0 l 290 780 l 24 780 z "},"U":{"ha":949,"x_min":68,"x_max":882,"o":"m 684 949 l 684 409 q 666 286 684 355 q 605 193 647 218 q 487 168 564 168 l 463 168 q 344 193 386 168 q 284 286 302 218 q 265 409 265 355 l 265 949 l 68 949 l 68 409 q 146 107 68 215 q 431 0 223 0 l 519 0 q 804 107 726 0 q 882 409 881 215 l 882 949 l 684 949 z "},"V":{"ha":746,"x_min":27,"x_max":713,"o":"m 526 949 l 713 949 l 532 0 l 209 0 l 27 949 l 215 949 l 370 138 l 526 949 z "},"W":{"ha":1255,"x_min":27,"x_max":1219,"o":"m 621 468 l 532 0 l 209 0 l 27 949 l 215 949 l 370 138 l 526 949 l 713 949 l 876 138 l 1031 949 l 1219 949 l 1037 0 l 714 0 l 621 468 z "},"X":{"ha":746,"x_min":32,"x_max":711,"o":"m 372 294 l 220 0 l 32 0 l 278 475 l 32 949 l 220 949 l 372 656 l 524 949 l 711 949 l 466 475 l 711 0 l 524 0 l 372 294 z "},"Y":{"ha":746,"x_min":32,"x_max":711,"o":"m 273 420 l 32 949 l 220 949 l 372 608 l 524 949 l 711 949 l 471 420 l 471 0 l 273 0 l 273 420 z "},"Z":{"ha":746,"x_min":68,"x_max":678,"o":"m 486 779 l 68 779 l 68 949 l 678 949 l 678 777 l 270 171 l 678 171 l 678 0 l 68 0 l 68 171 l 486 779 z "},"[":{"ha":543,"x_min":68,"x_max":475,"o":"m 68 0 l 475 0 l 475 168 l 265 168 l 265 781 l 475 781 l 475 949 l 68 949 l 68 0 z "},"\\":{"ha":640,"x_min":32,"x_max":605,"o":"m 417 0 l 32 949 l 220 949 l 605 0 l 417 0 z "},"]":{"ha":543,"x_min":68,"x_max":475,"o":"m 475 949 l 68 949 l 68 781 l 277 781 l 277 168 l 68 168 l 68 0 l 475 0 l 475 949 z "},"^":{"ha":757,"x_min":32,"x_max":731,"o":"m 385 792 l 221 408 l 32 408 l 290 972 l 477 972 l 731 408 l 543 408 l 385 791 l 385 792 z "},"_":{"ha":694,"x_min":0,"x_max":0,"o":""},"`":{"ha":370,"x_min":35,"x_max":287,"o":"m 287 745 l 210 745 l 35 949 l 214 949 l 287 745 z "},"a":{"ha":746,"x_min":27,"x_max":713,"o":"m 455 367 l 370 811 l 286 367 l 455 367 m 254 203 l 215 0 l 27 0 l 209 949 l 532 949 l 713 0 l 526 0 l 487 203 l 254 203 z "},"b":{"ha":814,"x_min":68,"x_max":787,"o":"m 68 949 l 68 0 l 441 0 q 718 96 649 0 q 787 285 787 191 q 733 441 787 380 q 611 507 680 503 q 746 688 737 571 q 677 861 747 772 q 401 949 608 949 l 68 949 m 265 781 l 369 781 q 480 770 446 781 q 533 738 515 758 q 553 686 551 717 q 537 632 554 656 q 483 590 521 609 q 369 572 446 572 l 265 572 l 265 781 m 306 403 l 410 403 q 524 384 486 403 q 577 337 562 366 q 593 285 592 308 q 577 234 592 263 q 524 187 562 205 q 410 168 486 168 l 265 168 l 265 404 l 306 404 l 306 403 z "},"c":{"ha":746,"x_min":68,"x_max":678,"o":"m 68 409 q 146 107 68 215 q 431 0 223 0 l 678 0 l 678 168 l 463 168 q 344 193 386 168 q 284 286 302 218 q 265 409 265 355 l 265 541 q 284 663 265 595 q 344 756 302 732 q 463 781 386 781 l 678 781 l 678 949 l 431 949 q 146 842 223 949 q 68 541 68 734 l 68 409 z "},"d":{"ha":882,"x_min":68,"x_max":814,"o":"m 68 949 l 68 0 l 451 0 q 736 107 659 0 q 814 409 813 215 l 814 541 q 736 842 813 734 q 451 949 659 949 l 68 949 m 265 781 l 419 781 q 537 756 496 781 q 598 663 579 732 q 616 541 616 595 l 616 409 q 598 286 616 355 q 537 193 579 218 q 419 168 496 168 l 265 168 l 265 781 z "},"e":{"ha":746,"x_min":68,"x_max":678,"o":"m 610 398 l 610 562 l 266 562 q 284 663 269 608 q 344 756 302 732 q 463 781 386 781 l 678 781 l 678 949 l 431 949 q 146 842 223 949 q 68 541 68 734 l 68 409 q 146 107 68 215 q 431 0 223 0 l 678 0 l 678 168 l 463 168 q 344 193 386 168 q 284 286 302 218 q 265 398 267 348 l 610 398 z "},"f":{"ha":746,"x_min":68,"x_max":678,"o":"m 265 0 l 265 398 l 610 398 l 610 562 l 266 562 q 284 663 269 608 q 344 756 302 732 q 463 781 386 781 l 678 781 l 678 949 l 431 949 q 146 842 223 949 q 68 541 68 734 l 68 0 l 265 0 z "},"g":{"ha":882,"x_min":68,"x_max":814,"o":"m 814 562 l 475 562 l 475 398 l 616 398 l 616 168 l 463 168 q 344 193 386 168 q 284 286 302 218 q 265 409 265 355 l 265 541 q 284 663 265 595 q 344 756 302 732 q 463 781 386 781 l 814 781 l 814 949 l 431 949 q 146 842 223 949 q 68 541 68 734 l 68 409 q 146 107 68 215 q 431 0 223 0 l 814 0 l 814 562 z "},"h":{"ha":882,"x_min":68,"x_max":814,"o":"m 265 562 l 265 949 l 68 949 l 68 0 l 265 0 l 265 398 l 616 398 l 616 0 l 814 0 l 814 949 l 616 949 l 616 562 l 265 562 z "},"i":{"ha":338,"x_min":68,"x_max":265,"o":"m 265 949 l 68 949 l 68 0 l 265 0 l 265 949 z "},"j":{"ha":746,"x_min":68,"x_max":678,"o":"m 481 949 l 481 388 q 460 280 477 342 q 402 193 444 218 q 283 168 360 168 l 68 168 l 68 0 l 315 0 q 600 107 523 0 q 678 409 677 215 l 678 949 l 481 949 z "},"k":{"ha":848,"x_min":68,"x_max":819,"o":"m 387 567 l 595 949 l 814 949 l 553 491 l 819 0 l 598 0 l 386 397 l 386 397 l 259 397 l 259 0 l 68 0 l 68 949 l 259 949 l 259 567 l 387 567 z "},"l":{"ha":746,"x_min":68,"x_max":678,"o":"m 68 949 l 68 409 q 146 107 68 215 q 431 0 223 0 l 678 0 l 678 168 l 463 168 q 344 193 386 168 q 286 280 302 218 q 265 388 269 342 l 265 949 l 68 949 z "},"m":{"ha":1153,"x_min":68,"x_max":1085,"o":"m 265 776 l 265 0 l 68 0 l 68 949 l 420 949 l 575 138 l 730 949 l 1085 949 l 1085 0 l 888 0 l 888 790 l 709 0 l 441 0 l 265 776 z "},"n":{"ha":848,"x_min":68,"x_max":774,"o":"m 265 809 l 265 0 l 68 0 l 68 949 l 403 949 l 577 144 l 577 949 l 774 949 l 774 0 l 437 0 l 265 809 z "},"o":{"ha":949,"x_min":68,"x_max":882,"o":"m 519 0 q 804 107 726 0 q 882 409 881 215 l 882 541 q 804 842 881 734 q 519 949 726 949 l 431 949 q 146 842 223 949 q 68 541 68 734 l 68 409 q 146 107 68 215 q 431 0 223 0 l 519 0 m 487 781 q 605 756 564 781 q 666 663 647 732 q 684 541 684 595 l 684 409 q 666 286 684 355 q 605 193 647 218 q 487 168 564 168 l 463 168 q 344 193 386 168 q 284 286 302 218 q 265 409 265 355 l 265 541 q 284 663 265 595 q 344 756 302 732 q 463 781 386 781 l 487 781 z "},"p":{"ha":814,"x_min":68,"x_max":747,"o":"m 401 324 q 677 430 608 324 q 746 637 747 536 q 677 844 747 738 q 401 949 608 949 l 68 949 l 68 0 l 265 0 l 265 324 l 401 324 m 369 781 q 483 763 446 781 q 536 715 521 744 q 553 637 551 686 q 536 558 551 587 q 483 511 521 530 q 369 492 446 492 l 265 492 l 265 781 l 369 781 z "},"q":{"ha":984,"x_min":68,"x_max":949,"o":"m 487 781 q 605 756 564 781 q 666 663 647 732 q 684 541 684 595 l 684 409 q 666 286 684 355 q 605 193 647 218 q 487 168 564 168 l 463 168 q 344 193 386 168 q 284 286 302 218 q 265 409 265 355 l 265 541 q 284 663 265 595 q 344 756 302 732 q 463 781 386 781 l 487 781 m 949 0 l 949 170 l 839 170 q 882 409 881 266 l 882 541 q 804 842 881 734 q 519 949 726 949 l 431 949 q 146 842 223 949 q 68 541 68 734 l 68 409 q 146 107 68 215 q 431 0 223 0 l 949 0 z "},"r":{"ha":814,"x_min":68,"x_max":785,"o":"m 369 781 q 483 763 446 781 q 536 715 521 744 q 553 637 551 686 q 536 558 551 587 q 483 511 521 530 q 369 492 446 492 l 265 492 l 265 781 l 369 781 m 597 0 l 785 0 l 600 362 q 677 430 650 387 q 746 637 747 536 q 677 844 747 738 q 401 949 608 949 l 68 949 l 68 0 l 265 0 l 265 324 l 401 324 q 427 325 414 324 l 597 0 z "},"s":{"ha":755,"x_min":57,"x_max":704,"o":"m 328 398 q 119 456 182 396 q 57 669 57 517 q 143 880 57 810 q 379 949 229 949 l 678 949 l 678 783 l 399 783 q 256 679 263 779 q 338 562 249 578 l 433 562 q 642 503 579 564 q 704 290 704 443 q 618 70 704 139 q 382 0 532 0 l 68 0 l 68 167 l 362 167 q 505 276 498 171 q 436 398 512 381 l 328 398 z "},"t":{"ha":814,"x_min":24,"x_max":746,"o":"m 24 780 l 24 949 l 746 949 l 746 780 l 482 780 l 482 0 l 290 0 l 290 780 l 24 780 z "},"u":{"ha":949,"x_min":68,"x_max":882,"o":"m 684 949 l 684 409 q 666 286 684 355 q 605 193 647 218 q 487 168 564 168 l 463 168 q 344 193 386 168 q 284 286 302 218 q 265 409 265 355 l 265 949 l 68 949 l 68 409 q 146 107 68 215 q 431 0 223 0 l 519 0 q 804 107 726 0 q 882 409 881 215 l 882 949 l 684 949 z "},"v":{"ha":746,"x_min":27,"x_max":713,"o":"m 526 949 l 713 949 l 532 0 l 209 0 l 27 949 l 215 949 l 370 138 l 526 949 z "},"w":{"ha":1255,"x_min":27,"x_max":1219,"o":"m 621 468 l 532 0 l 209 0 l 27 949 l 215 949 l 370 138 l 526 949 l 713 949 l 876 138 l 1031 949 l 1219 949 l 1037 0 l 714 0 l 621 468 z "},"x":{"ha":746,"x_min":32,"x_max":711,"o":"m 372 294 l 220 0 l 32 0 l 278 475 l 32 949 l 220 949 l 372 656 l 524 949 l 711 949 l 466 475 l 711 0 l 524 0 l 372 294 z "},"y":{"ha":746,"x_min":32,"x_max":711,"o":"m 273 420 l 32 949 l 220 949 l 372 608 l 524 949 l 711 949 l 471 420 l 471 0 l 273 0 l 273 420 z "},"z":{"ha":746,"x_min":68,"x_max":678,"o":"m 486 779 l 68 779 l 68 949 l 678 949 l 678 777 l 270 171 l 678 171 l 678 0 l 68 0 l 68 171 l 486 779 z "},"{":{"ha":576,"x_min":30,"x_max":524,"o":"m 180 686 q 165 632 182 656 q 111 591 149 609 q 30 572 82 576 l 30 403 l 37 403 q 110 384 73 403 q 163 337 148 366 q 180 285 178 308 q 248 96 179 191 q 524 0 317 0 l 524 168 l 516 168 q 443 187 480 168 q 390 234 405 205 q 373 285 374 263 q 320 441 374 380 q 239 507 266 503 q 374 686 363 570 l 373 686 q 392 738 374 717 q 446 770 410 758 q 524 781 472 779 l 524 949 q 248 861 317 949 q 180 688 179 772 l 180 686 l 180 686 z "},"|":{"ha":338,"x_min":68,"x_max":265,"o":"m 265 949 l 68 949 l 68 -283 l 265 -283 l 265 949 z "},"}":{"ha":576,"x_min":68,"x_max":562,"o":"m 411 686 l 412 686 l 412 688 q 343 861 412 772 q 68 949 274 949 l 68 781 q 146 770 119 779 q 199 738 181 758 q 218 686 217 717 l 218 686 q 353 507 228 570 q 272 441 326 503 q 218 285 218 380 q 202 234 217 263 q 149 187 186 205 q 75 168 111 168 l 68 168 l 68 0 q 343 96 274 0 q 412 285 412 191 q 428 337 413 308 q 481 384 444 366 q 554 403 519 403 l 562 403 l 562 572 q 481 591 509 576 q 426 632 443 609 q 411 686 410 656 z "},"¡":{"ha":338,"x_min":68,"x_max":265,"o":"m 265 678 l 68 678 l 68 0 l 265 0 l 265 678 m 265 949 l 68 949 l 68 775 l 265 775 l 265 949 z "},"©":{"ha":1157,"x_min":75,"x_max":1083,"o":"m 578 1003 q 937 854 789 1003 q 1083 497 1083 708 q 937 144 1083 287 q 578 -7 783 -7 q 224 142 374 -7 q 75 497 75 292 q 224 856 75 705 q 578 1003 369 1003 m 579 920 q 282 798 402 920 q 158 498 158 671 q 282 201 158 325 q 579 78 406 78 q 879 203 752 78 q 1000 498 1000 321 q 877 797 1000 673 q 579 920 754 920 m 822 608 l 694 608 q 578 708 684 708 q 482 654 517 708 q 446 498 446 599 q 583 294 446 294 q 699 404 686 294 l 829 404 q 755 253 824 310 q 579 196 687 196 q 380 276 454 196 q 307 494 307 355 q 382 718 307 635 q 581 800 456 800 q 751 747 684 800 q 822 608 817 694 z "},"®":{"ha":1157,"x_min":75,"x_max":1083,"o":"m 578 1003 q 940 851 791 1003 q 1083 497 1083 706 q 935 140 1083 285 q 578 -7 783 -7 q 220 146 370 -7 q 75 497 75 292 q 149 760 75 635 q 329 939 216 875 q 578 1003 441 1003 m 579 920 q 286 800 406 920 q 158 498 158 672 q 279 204 158 326 q 578 77 406 77 q 876 200 747 77 q 1000 490 1000 318 q 880 793 1000 671 q 579 920 756 920 m 558 686 q 628 674 605 686 q 660 646 651 663 q 670 598 669 628 q 660 550 669 568 q 628 521 651 532 q 558 510 605 510 l 495 510 l 495 686 l 558 686 m 697 210 l 812 210 l 699 431 q 746 472 729 446 q 788 598 788 536 q 746 724 788 659 q 578 788 704 788 l 375 788 l 375 210 l 495 210 l 495 408 l 578 408 q 594 408 586 408 l 697 210 z "},"²":{"ha":250,"x_min":37,"x_max":227,"o":"m 116 808 q 95 743 94 805 l 224 743 l 224 694 l 37 694 l 37 779 q 56 842 37 824 q 117 859 74 859 l 144 859 q 169 893 171 864 q 127 924 167 922 l 45 924 l 45 972 l 133 972 q 202 952 176 972 q 227 890 227 932 q 209 828 227 846 q 148 811 191 810 l 116 808 z "},"³":{"ha":237,"x_min":28,"x_max":208,"o":"m 28 744 l 28 694 l 106 694 q 187 723 167 694 q 208 778 208 751 q 192 824 208 806 q 156 843 176 842 q 195 896 193 862 q 175 946 195 920 q 94 972 155 972 l 28 972 l 28 923 l 85 923 q 117 920 107 923 q 133 910 127 916 q 139 895 138 905 q 134 880 139 886 q 118 867 130 873 q 85 862 107 862 l 48 862 l 48 812 l 97 812 q 130 807 119 812 q 146 793 141 802 q 151 778 151 785 q 146 763 151 772 q 130 749 141 755 q 97 744 119 744 l 28 744 z "},"¹":{"ha":154,"x_min":33,"x_max":127,"o":"m 127 972 l 33 972 l 33 694 l 127 694 l 127 972 z "},"º":{"ha":283,"x_min":42,"x_max":254,"o":"m 173 915 q 179 912 173 915 q 191 888 185 908 q 197 852 197 868 l 197 814 q 191 778 197 798 q 173 750 185 758 q 148 743 161 743 q 123 750 135 743 q 105 778 111 758 q 100 814 100 798 l 100 852 q 105 888 100 868 q 123 915 111 908 q 148 922 135 922 q 173 915 161 922 m 148 972 q 65 941 87 972 q 42 852 42 909 l 42 814 q 65 725 42 757 q 148 694 87 694 q 231 725 209 694 q 254 814 254 757 l 254 852 q 231 941 254 909 q 148 972 209 972 z "},"¿":{"ha":762,"x_min":94,"x_max":715,"o":"m 375 388 q 293 271 286 371 q 435 167 300 171 l 715 167 l 715 0 l 416 0 q 180 70 266 0 q 94 280 94 139 q 156 493 94 433 q 364 551 218 553 q 431 678 417 568 l 632 678 l 632 659 q 570 446 632 507 q 375 388 510 389 m 435 775 l 632 775 l 632 949 l 435 949 l 435 775 z "},"À":{"ha":746,"x_min":27,"x_max":713,"o":"m 455 367 l 370 811 l 286 367 l 455 367 m 254 203 l 215 0 l 27 0 l 209 949 l 532 949 l 713 0 l 526 0 l 487 203 l 254 203 m 423 972 l 346 972 l 176 1164 l 355 1164 l 423 972 z "},"Á":{"ha":746,"x_min":27,"x_max":713,"o":"m 455 367 l 370 811 l 286 367 l 455 367 m 254 203 l 215 0 l 27 0 l 209 949 l 532 949 l 713 0 l 526 0 l 487 203 l 254 203 m 389 1164 l 568 1164 l 398 972 l 321 972 l 389 1164 z "},"Â":{"ha":746,"x_min":27,"x_max":713,"o":"m 455 367 l 370 811 l 286 367 l 455 367 m 254 203 l 215 0 l 27 0 l 209 949 l 532 949 l 713 0 l 526 0 l 487 203 l 254 203 m 213 972 l 370 1164 l 530 972 l 451 972 l 370 1057 l 293 972 l 213 972 z "},"Ã":{"ha":746,"x_min":27,"x_max":713,"o":"m 455 367 l 370 811 l 286 367 l 455 367 m 254 203 l 215 0 l 27 0 l 209 949 l 532 949 l 713 0 l 526 0 l 487 203 l 254 203 m 119 972 q 144 1075 121 1040 q 207 1127 168 1109 q 274 1141 247 1145 q 336 1106 302 1137 q 399 1058 370 1075 q 456 1053 427 1040 q 510 1097 486 1066 q 538 1164 534 1128 l 622 1164 q 601 1093 623 1124 q 553 1032 579 1062 q 502 990 528 1002 q 444 975 475 979 q 385 978 413 972 q 339 999 357 984 q 303 1039 321 1015 q 259 1062 285 1063 q 217 1042 233 1061 q 199 972 201 1023 l 119 972 z "},"Ä":{"ha":746,"x_min":27,"x_max":713,"o":"m 455 367 l 370 811 l 286 367 l 455 367 m 254 203 l 215 0 l 27 0 l 209 949 l 532 949 l 713 0 l 526 0 l 487 203 l 254 203 m 296 983 l 296 1152 l 148 1152 l 148 983 l 296 983 m 589 983 l 589 1152 l 439 1152 l 439 983 l 589 983 z "},"Æ":{"ha":1221,"x_min":27,"x_max":1153,"o":"m 455 367 l 370 811 l 286 367 l 455 367 m 707 37 l 713 0 l 526 0 l 487 203 l 254 203 l 215 0 l 27 0 l 209 949 l 532 949 l 571 743 q 621 842 590 800 q 905 949 698 949 l 1153 949 l 1153 781 l 937 781 q 819 756 861 781 q 759 663 777 732 q 741 562 743 608 l 1085 562 l 1085 398 l 740 398 q 759 286 742 348 q 819 193 777 218 q 937 168 861 168 l 1153 168 l 1153 0 l 905 0 q 707 37 783 0 z "},"Ç":{"ha":746,"x_min":68,"x_max":678,"o":"m 490 0 l 678 0 l 678 168 l 463 168 q 344 193 386 168 q 284 286 302 218 q 265 409 265 355 l 265 541 q 284 663 265 595 q 344 756 302 732 q 463 781 386 781 l 678 781 l 678 949 l 431 949 q 146 842 223 949 q 68 541 68 734 l 68 409 q 146 108 68 215 q 427 0 222 1 l 427 -113 q 464 -116 452 -113 q 484 -122 475 -119 q 499 -138 493 -125 q 504 -165 505 -151 q 480 -184 502 -180 q 433 -184 459 -187 q 374 -173 408 -180 l 349 -222 q 416 -239 395 -235 q 479 -240 438 -244 q 542 -222 521 -235 q 566 -180 562 -210 q 568 -129 570 -150 q 548 -90 565 -108 q 490 -67 531 -71 l 490 0 z "},"È":{"ha":746,"x_min":68,"x_max":678,"o":"m 610 398 l 610 562 l 266 562 q 284 663 269 608 q 344 756 302 732 q 463 781 386 781 l 678 781 l 678 949 l 431 949 q 146 842 223 949 q 68 541 68 734 l 68 409 q 146 107 68 215 q 431 0 223 0 l 678 0 l 678 168 l 463 168 q 344 193 386 168 q 284 286 302 218 q 265 398 267 348 l 610 398 m 515 972 l 438 972 l 269 1164 l 448 1164 l 515 972 z "},"É":{"ha":746,"x_min":68,"x_max":678,"o":"m 610 398 l 610 562 l 266 562 q 284 663 269 608 q 344 756 302 732 q 463 781 386 781 l 678 781 l 678 949 l 431 949 q 146 842 223 949 q 68 541 68 734 l 68 409 q 146 107 68 215 q 431 0 223 0 l 678 0 l 678 168 l 463 168 q 344 193 386 168 q 284 286 302 218 q 265 398 267 348 l 610 398 m 462 1164 l 642 1164 l 471 972 l 395 972 l 462 1164 z "},"Ê":{"ha":746,"x_min":68,"x_max":678,"o":"m 610 398 l 610 562 l 266 562 q 284 663 269 608 q 344 756 302 732 q 463 781 386 781 l 678 781 l 678 949 l 431 949 q 146 842 223 949 q 68 541 68 734 l 68 409 q 146 107 68 215 q 431 0 223 0 l 678 0 l 678 168 l 463 168 q 344 193 386 168 q 284 286 302 218 q 265 398 267 348 l 610 398 m 281 972 l 438 1164 l 598 972 l 519 972 l 438 1057 l 361 972 l 281 972 z "},"Ë":{"ha":746,"x_min":68,"x_max":678,"o":"m 610 398 l 610 562 l 266 562 q 284 663 269 608 q 344 756 302 732 q 463 781 386 781 l 678 781 l 678 949 l 431 949 q 146 842 223 949 q 68 541 68 734 l 68 409 q 146 107 68 215 q 431 0 223 0 l 678 0 l 678 168 l 463 168 q 344 193 386 168 q 284 286 302 218 q 265 398 267 348 l 610 398 m 371 983 l 371 1152 l 222 1152 l 222 983 l 371 983 m 663 983 l 663 1152 l 514 1152 l 514 983 l 663 983 z "},"Ì":{"ha":338,"x_min":-5,"x_max":265,"o":"m 265 949 l 68 949 l 68 0 l 265 0 l 265 949 m 242 972 l 165 972 l -5 1164 l 174 1164 l 242 972 z "},"Í":{"ha":338,"x_min":68,"x_max":334,"o":"m 265 949 l 68 949 l 68 0 l 265 0 l 265 949 m 155 1164 l 334 1164 l 164 972 l 87 972 l 155 1164 z "},"Î":{"ha":338,"x_min":9,"x_max":326,"o":"m 265 949 l 68 949 l 68 0 l 265 0 l 265 949 m 9 972 l 165 1164 l 326 972 l 247 972 l 165 1057 l 89 972 l 9 972 z "},"Ï":{"ha":407,"x_min":-53,"x_max":388,"o":"m 265 949 l 68 949 l 68 0 l 265 0 l 265 949 m 96 983 l 96 1152 l -53 1152 l -53 983 l 96 983 m 388 983 l 388 1152 l 239 1152 l 239 983 l 388 983 z "},"Ð":{"ha":919,"x_min":40,"x_max":854,"o":"m 108 949 l 108 0 l 491 0 q 776 107 699 0 q 854 409 853 215 l 854 541 q 776 842 853 734 q 491 949 699 949 l 108 949 m 305 781 l 459 781 q 577 756 536 781 q 638 663 619 732 q 656 541 656 595 l 656 409 q 638 286 656 355 q 577 193 619 218 q 459 168 536 168 l 305 168 l 305 781 m 478 390 l 478 559 l 40 559 l 40 390 l 478 390 z "},"Ñ":{"ha":848,"x_min":68,"x_max":774,"o":"m 265 809 l 265 0 l 68 0 l 68 949 l 403 949 l 577 144 l 577 949 l 774 949 l 774 0 l 437 0 l 265 809 m 191 972 q 215 1075 192 1040 q 278 1127 239 1109 q 346 1141 318 1145 q 407 1106 373 1137 q 470 1058 441 1075 q 528 1053 498 1040 q 581 1097 557 1066 q 610 1164 606 1128 l 693 1164 q 672 1093 694 1124 q 625 1032 650 1062 q 573 990 599 1002 q 515 975 547 979 q 456 978 484 972 q 410 999 429 984 q 374 1039 392 1015 q 330 1062 356 1063 q 288 1042 304 1061 q 270 972 273 1023 l 191 972 z "},"Ò":{"ha":949,"x_min":68,"x_max":882,"o":"m 519 0 q 804 107 726 0 q 882 409 881 215 l 882 541 q 804 842 881 734 q 519 949 726 949 l 431 949 q 146 842 223 949 q 68 541 68 734 l 68 409 q 146 107 68 215 q 431 0 223 0 l 519 0 m 487 781 q 605 756 564 781 q 666 663 647 732 q 684 541 684 595 l 684 409 q 666 286 684 355 q 605 193 647 218 q 487 168 564 168 l 463 168 q 344 193 386 168 q 284 286 302 218 q 265 409 265 355 l 265 541 q 284 663 265 595 q 344 756 302 732 q 463 781 386 781 l 487 781 m 522 972 l 444 972 l 275 1164 l 454 1164 l 522 972 z "},"Ó":{"ha":949,"x_min":68,"x_max":882,"o":"m 519 0 q 804 107 726 0 q 882 409 881 215 l 882 541 q 804 842 881 734 q 519 949 726 949 l 431 949 q 146 842 223 949 q 68 541 68 734 l 68 409 q 146 107 68 215 q 431 0 223 0 l 519 0 m 487 781 q 605 756 564 781 q 666 663 647 732 q 684 541 684 595 l 684 409 q 666 286 684 355 q 605 193 647 218 q 487 168 564 168 l 463 168 q 344 193 386 168 q 284 286 302 218 q 265 409 265 355 l 265 541 q 284 663 265 595 q 344 756 302 732 q 463 781 386 781 l 487 781 m 498 1164 l 678 1164 l 508 972 l 431 972 l 498 1164 z "},"Ô":{"ha":949,"x_min":68,"x_max":882,"o":"m 519 0 q 804 107 726 0 q 882 409 881 215 l 882 541 q 804 842 881 734 q 519 949 726 949 l 431 949 q 146 842 223 949 q 68 541 68 734 l 68 409 q 146 107 68 215 q 431 0 223 0 l 519 0 m 487 781 q 605 756 564 781 q 666 663 647 732 q 684 541 684 595 l 684 409 q 666 286 684 355 q 605 193 647 218 q 487 168 564 168 l 463 168 q 344 193 386 168 q 284 286 302 218 q 265 409 265 355 l 265 541 q 284 663 265 595 q 344 756 302 732 q 463 781 386 781 l 487 781 m 315 972 l 472 1164 l 632 972 l 553 972 l 472 1057 l 395 972 l 315 972 z "},"Õ":{"ha":949,"x_min":68,"x_max":882,"o":"m 519 0 q 804 107 726 0 q 882 409 881 215 l 882 541 q 804 842 881 734 q 519 949 726 949 l 431 949 q 146 842 223 949 q 68 541 68 734 l 68 409 q 146 107 68 215 q 431 0 223 0 l 519 0 m 487 781 q 605 756 564 781 q 666 663 647 732 q 684 541 684 595 l 684 409 q 666 286 684 355 q 605 193 647 218 q 487 168 564 168 l 463 168 q 344 193 386 168 q 284 286 302 218 q 265 409 265 355 l 265 541 q 284 663 265 595 q 344 756 302 732 q 463 781 386 781 l 487 781 m 241 972 q 266 1075 243 1040 q 329 1127 290 1109 q 396 1141 369 1145 q 458 1106 424 1137 q 521 1058 492 1075 q 578 1053 549 1040 q 632 1097 608 1066 q 661 1164 656 1128 l 744 1164 q 723 1093 745 1124 q 675 1032 701 1062 q 624 990 650 1002 q 566 975 597 979 q 507 978 535 972 q 461 999 479 984 q 425 1039 443 1015 q 381 1062 407 1063 q 339 1042 355 1061 q 321 972 323 1023 l 241 972 z "},"Ö":{"ha":949,"x_min":68,"x_max":882,"o":"m 519 0 q 804 107 726 0 q 882 409 881 215 l 882 541 q 804 842 881 734 q 519 949 726 949 l 431 949 q 146 842 223 949 q 68 541 68 734 l 68 409 q 146 107 68 215 q 431 0 223 0 l 519 0 m 487 781 q 605 756 564 781 q 666 663 647 732 q 684 541 684 595 l 684 409 q 666 286 684 355 q 605 193 647 218 q 487 168 564 168 l 463 168 q 344 193 386 168 q 284 286 302 218 q 265 409 265 355 l 265 541 q 284 663 265 595 q 344 756 302 732 q 463 781 386 781 l 487 781 m 409 983 l 409 1152 l 260 1152 l 260 983 l 409 983 m 701 983 l 701 1152 l 552 1152 l 552 983 l 701 983 z "},"Ø":{"ha":949,"x_min":-37,"x_max":987,"o":"m 519 0 q 804 107 726 0 q 882 409 881 215 l 882 541 q 804 842 881 734 q 519 949 726 949 l 431 949 q 146 842 223 949 q 68 541 68 734 l 68 409 q 146 107 68 215 q 431 0 223 0 l 519 0 m 487 781 q 605 756 564 781 q 666 663 647 732 q 684 541 684 595 l 684 409 q 666 286 684 355 q 605 193 647 218 q 487 168 564 168 l 463 168 q 344 193 386 168 q 284 286 302 218 q 265 409 265 355 l 265 541 q 284 663 265 595 q 344 756 302 732 q 463 781 386 781 l 487 781 m 151 0 l 987 949 l 800 949 l -37 0 l 151 0 z "},"Ù":{"ha":949,"x_min":68,"x_max":882,"o":"m 684 949 l 684 409 q 666 286 684 355 q 605 193 647 218 q 487 168 564 168 l 463 168 q 344 193 386 168 q 284 286 302 218 q 265 409 265 355 l 265 949 l 68 949 l 68 409 q 146 107 68 215 q 431 0 223 0 l 519 0 q 804 107 726 0 q 882 409 881 215 l 882 949 l 684 949 m 522 972 l 444 972 l 275 1164 l 454 1164 l 522 972 z "},"Ú":{"ha":949,"x_min":68,"x_max":882,"o":"m 684 949 l 684 409 q 666 286 684 355 q 605 193 647 218 q 487 168 564 168 l 463 168 q 344 193 386 168 q 284 286 302 218 q 265 409 265 355 l 265 949 l 68 949 l 68 409 q 146 107 68 215 q 431 0 223 0 l 519 0 q 804 107 726 0 q 882 409 881 215 l 882 949 l 684 949 m 501 1164 l 681 1164 l 511 972 l 434 972 l 501 1164 z "},"Û":{"ha":949,"x_min":68,"x_max":882,"o":"m 684 949 l 684 409 q 666 286 684 355 q 605 193 647 218 q 487 168 564 168 l 463 168 q 344 193 386 168 q 284 286 302 218 q 265 409 265 355 l 265 949 l 68 949 l 68 409 q 146 107 68 215 q 431 0 223 0 l 519 0 q 804 107 726 0 q 882 409 881 215 l 882 949 l 684 949 m 315 972 l 472 1164 l 632 972 l 553 972 l 472 1057 l 395 972 l 315 972 z "},"Ü":{"ha":949,"x_min":68,"x_max":882,"o":"m 684 949 l 684 409 q 666 286 684 355 q 605 193 647 218 q 487 168 564 168 l 463 168 q 344 193 386 168 q 284 286 302 218 q 265 409 265 355 l 265 949 l 68 949 l 68 409 q 146 107 68 215 q 431 0 223 0 l 519 0 q 804 107 726 0 q 882 409 881 215 l 882 949 l 684 949 m 409 983 l 409 1152 l 260 1152 l 260 983 l 409 983 m 701 983 l 701 1152 l 552 1152 l 552 983 l 701 983 z "},"Ý":{"ha":746,"x_min":32,"x_max":711,"o":"m 273 420 l 32 949 l 220 949 l 372 608 l 524 949 l 711 949 l 471 420 l 471 0 l 273 0 l 273 420 m 395 1164 l 575 1164 l 405 972 l 328 972 l 395 1164 z "},"Þ":{"ha":877,"x_min":68,"x_max":808,"o":"m 446 170 q 730 277 653 170 q 808 467 808 385 l 808 487 q 730 683 808 576 q 446 791 653 791 l 265 791 l 265 949 l 68 949 l 68 0 l 265 0 l 265 170 l 446 170 m 414 623 q 532 598 490 623 q 592 547 574 573 q 611 487 611 521 l 611 467 q 592 410 611 433 q 532 362 574 387 q 414 338 490 338 l 265 338 l 265 623 l 414 623 z "},"à":{"ha":746,"x_min":27,"x_max":713,"o":"m 455 367 l 370 811 l 286 367 l 455 367 m 254 203 l 215 0 l 27 0 l 209 949 l 532 949 l 713 0 l 526 0 l 487 203 l 254 203 m 423 972 l 346 972 l 176 1164 l 355 1164 l 423 972 z "},"á":{"ha":746,"x_min":27,"x_max":713,"o":"m 455 367 l 370 811 l 286 367 l 455 367 m 254 203 l 215 0 l 27 0 l 209 949 l 532 949 l 713 0 l 526 0 l 487 203 l 254 203 m 389 1164 l 568 1164 l 398 972 l 321 972 l 389 1164 z "},"â":{"ha":746,"x_min":27,"x_max":713,"o":"m 455 367 l 370 811 l 286 367 l 455 367 m 254 203 l 215 0 l 27 0 l 209 949 l 532 949 l 713 0 l 526 0 l 487 203 l 254 203 m 213 972 l 370 1164 l 530 972 l 451 972 l 370 1057 l 293 972 l 213 972 z "},"ã":{"ha":746,"x_min":27,"x_max":713,"o":"m 455 367 l 370 811 l 286 367 l 455 367 m 254 203 l 215 0 l 27 0 l 209 949 l 532 949 l 713 0 l 526 0 l 487 203 l 254 203 m 119 972 q 144 1075 121 1040 q 207 1127 168 1109 q 274 1141 247 1145 q 336 1106 302 1137 q 399 1058 370 1075 q 456 1053 427 1040 q 510 1097 486 1066 q 538 1164 534 1128 l 622 1164 q 601 1093 623 1124 q 553 1032 579 1062 q 502 990 528 1002 q 444 975 475 979 q 385 978 413 972 q 339 999 357 984 q 303 1039 321 1015 q 259 1062 285 1063 q 217 1042 233 1061 q 199 972 201 1023 l 119 972 z "},"ä":{"ha":746,"x_min":27,"x_max":713,"o":"m 455 367 l 370 811 l 286 367 l 455 367 m 254 203 l 215 0 l 27 0 l 209 949 l 532 949 l 713 0 l 526 0 l 487 203 l 254 203 m 296 983 l 296 1152 l 148 1152 l 148 983 l 296 983 m 589 983 l 589 1152 l 439 1152 l 439 983 l 589 983 z "},"æ":{"ha":1221,"x_min":27,"x_max":1153,"o":"m 455 367 l 370 811 l 286 367 l 455 367 m 707 37 l 713 0 l 526 0 l 487 203 l 254 203 l 215 0 l 27 0 l 209 949 l 532 949 l 571 743 q 621 842 590 800 q 905 949 698 949 l 1153 949 l 1153 781 l 937 781 q 819 756 861 781 q 759 663 777 732 q 741 562 743 608 l 1085 562 l 1085 398 l 740 398 q 759 286 742 348 q 819 193 777 218 q 937 168 861 168 l 1153 168 l 1153 0 l 905 0 q 707 37 783 0 z "},"ç":{"ha":746,"x_min":68,"x_max":678,"o":"m 490 0 l 678 0 l 678 168 l 463 168 q 344 193 386 168 q 284 286 302 218 q 265 409 265 355 l 265 541 q 284 663 265 595 q 344 756 302 732 q 463 781 386 781 l 678 781 l 678 949 l 431 949 q 146 842 223 949 q 68 541 68 734 l 68 409 q 146 108 68 215 q 427 0 222 1 l 427 -113 q 464 -116 452 -113 q 484 -122 475 -119 q 499 -138 493 -125 q 504 -165 505 -151 q 480 -184 502 -180 q 433 -184 459 -187 q 374 -173 408 -180 l 349 -222 q 416 -239 395 -235 q 479 -240 438 -244 q 542 -222 521 -235 q 566 -180 562 -210 q 568 -129 570 -150 q 548 -90 565 -108 q 490 -67 531 -71 l 490 0 z "},"è":{"ha":746,"x_min":68,"x_max":678,"o":"m 610 398 l 610 562 l 266 562 q 284 663 269 608 q 344 756 302 732 q 463 781 386 781 l 678 781 l 678 949 l 431 949 q 146 842 223 949 q 68 541 68 734 l 68 409 q 146 107 68 215 q 431 0 223 0 l 678 0 l 678 168 l 463 168 q 344 193 386 168 q 284 286 302 218 q 265 398 267 348 l 610 398 m 515 972 l 438 972 l 269 1164 l 448 1164 l 515 972 z "},"é":{"ha":746,"x_min":68,"x_max":678,"o":"m 610 398 l 610 562 l 266 562 q 284 663 269 608 q 344 756 302 732 q 463 781 386 781 l 678 781 l 678 949 l 431 949 q 146 842 223 949 q 68 541 68 734 l 68 409 q 146 107 68 215 q 431 0 223 0 l 678 0 l 678 168 l 463 168 q 344 193 386 168 q 284 286 302 218 q 265 398 267 348 l 610 398 m 462 1164 l 642 1164 l 471 972 l 395 972 l 462 1164 z "},"ê":{"ha":746,"x_min":68,"x_max":678,"o":"m 610 398 l 610 562 l 266 562 q 284 663 269 608 q 344 756 302 732 q 463 781 386 781 l 678 781 l 678 949 l 431 949 q 146 842 223 949 q 68 541 68 734 l 68 409 q 146 107 68 215 q 431 0 223 0 l 678 0 l 678 168 l 463 168 q 344 193 386 168 q 284 286 302 218 q 265 398 267 348 l 610 398 m 281 972 l 438 1164 l 598 972 l 519 972 l 438 1057 l 361 972 l 281 972 z "},"ë":{"ha":746,"x_min":68,"x_max":678,"o":"m 610 398 l 610 562 l 266 562 q 284 663 269 608 q 344 756 302 732 q 463 781 386 781 l 678 781 l 678 949 l 431 949 q 146 842 223 949 q 68 541 68 734 l 68 409 q 146 107 68 215 q 431 0 223 0 l 678 0 l 678 168 l 463 168 q 344 193 386 168 q 284 286 302 218 q 265 398 267 348 l 610 398 m 371 983 l 371 1152 l 222 1152 l 222 983 l 371 983 m 663 983 l 663 1152 l 514 1152 l 514 983 l 663 983 z "},"ì":{"ha":338,"x_min":-5,"x_max":265,"o":"m 265 949 l 68 949 l 68 0 l 265 0 l 265 949 m 242 972 l 165 972 l -5 1164 l 174 1164 l 242 972 z "},"í":{"ha":338,"x_min":68,"x_max":334,"o":"m 265 949 l 68 949 l 68 0 l 265 0 l 265 949 m 155 1164 l 334 1164 l 164 972 l 87 972 l 155 1164 z "},"î":{"ha":338,"x_min":9,"x_max":326,"o":"m 265 949 l 68 949 l 68 0 l 265 0 l 265 949 m 9 972 l 165 1164 l 326 972 l 247 972 l 165 1057 l 89 972 l 9 972 z "},"ï":{"ha":407,"x_min":-53,"x_max":388,"o":"m 265 949 l 68 949 l 68 0 l 265 0 l 265 949 m 96 983 l 96 1152 l -53 1152 l -53 983 l 96 983 m 388 983 l 388 1152 l 239 1152 l 239 983 l 388 983 z "},"ð":{"ha":919,"x_min":40,"x_max":854,"o":"m 108 949 l 108 0 l 491 0 q 776 107 699 0 q 854 409 853 215 l 854 541 q 776 842 853 734 q 491 949 699 949 l 108 949 m 305 781 l 459 781 q 577 756 536 781 q 638 663 619 732 q 656 541 656 595 l 656 409 q 638 286 656 355 q 577 193 619 218 q 459 168 536 168 l 305 168 l 305 781 m 478 390 l 478 559 l 40 559 l 40 390 l 478 390 z "},"ñ":{"ha":848,"x_min":68,"x_max":774,"o":"m 265 809 l 265 0 l 68 0 l 68 949 l 403 949 l 577 144 l 577 949 l 774 949 l 774 0 l 437 0 l 265 809 m 191 972 q 215 1075 192 1040 q 278 1127 239 1109 q 346 1141 318 1145 q 407 1106 373 1137 q 470 1058 441 1075 q 528 1053 498 1040 q 581 1097 557 1066 q 610 1164 606 1128 l 693 1164 q 672 1093 694 1124 q 625 1032 650 1062 q 573 990 599 1002 q 515 975 547 979 q 456 978 484 972 q 410 999 429 984 q 374 1039 392 1015 q 330 1062 356 1063 q 288 1042 304 1061 q 270 972 273 1023 l 191 972 z "},"ò":{"ha":949,"x_min":68,"x_max":882,"o":"m 519 0 q 804 107 726 0 q 882 409 881 215 l 882 541 q 804 842 881 734 q 519 949 726 949 l 431 949 q 146 842 223 949 q 68 541 68 734 l 68 409 q 146 107 68 215 q 431 0 223 0 l 519 0 m 487 781 q 605 756 564 781 q 666 663 647 732 q 684 541 684 595 l 684 409 q 666 286 684 355 q 605 193 647 218 q 487 168 564 168 l 463 168 q 344 193 386 168 q 284 286 302 218 q 265 409 265 355 l 265 541 q 284 663 265 595 q 344 756 302 732 q 463 781 386 781 l 487 781 m 522 972 l 444 972 l 275 1164 l 454 1164 l 522 972 z "},"ó":{"ha":949,"x_min":68,"x_max":882,"o":"m 519 0 q 804 107 726 0 q 882 409 881 215 l 882 541 q 804 842 881 734 q 519 949 726 949 l 431 949 q 146 842 223 949 q 68 541 68 734 l 68 409 q 146 107 68 215 q 431 0 223 0 l 519 0 m 487 781 q 605 756 564 781 q 666 663 647 732 q 684 541 684 595 l 684 409 q 666 286 684 355 q 605 193 647 218 q 487 168 564 168 l 463 168 q 344 193 386 168 q 284 286 302 218 q 265 409 265 355 l 265 541 q 284 663 265 595 q 344 756 302 732 q 463 781 386 781 l 487 781 m 498 1164 l 678 1164 l 508 972 l 431 972 l 498 1164 z "},"ô":{"ha":949,"x_min":68,"x_max":882,"o":"m 519 0 q 804 107 726 0 q 882 409 881 215 l 882 541 q 804 842 881 734 q 519 949 726 949 l 431 949 q 146 842 223 949 q 68 541 68 734 l 68 409 q 146 107 68 215 q 431 0 223 0 l 519 0 m 487 781 q 605 756 564 781 q 666 663 647 732 q 684 541 684 595 l 684 409 q 666 286 684 355 q 605 193 647 218 q 487 168 564 168 l 463 168 q 344 193 386 168 q 284 286 302 218 q 265 409 265 355 l 265 541 q 284 663 265 595 q 344 756 302 732 q 463 781 386 781 l 487 781 m 315 972 l 472 1164 l 632 972 l 553 972 l 472 1057 l 395 972 l 315 972 z "},"õ":{"ha":949,"x_min":68,"x_max":882,"o":"m 519 0 q 804 107 726 0 q 882 409 881 215 l 882 541 q 804 842 881 734 q 519 949 726 949 l 431 949 q 146 842 223 949 q 68 541 68 734 l 68 409 q 146 107 68 215 q 431 0 223 0 l 519 0 m 487 781 q 605 756 564 781 q 666 663 647 732 q 684 541 684 595 l 684 409 q 666 286 684 355 q 605 193 647 218 q 487 168 564 168 l 463 168 q 344 193 386 168 q 284 286 302 218 q 265 409 265 355 l 265 541 q 284 663 265 595 q 344 756 302 732 q 463 781 386 781 l 487 781 m 241 972 q 266 1075 243 1040 q 329 1127 290 1109 q 396 1141 369 1145 q 458 1106 424 1137 q 521 1058 492 1075 q 578 1053 549 1040 q 632 1097 608 1066 q 661 1164 656 1128 l 744 1164 q 723 1093 745 1124 q 675 1032 701 1062 q 624 990 650 1002 q 566 975 597 979 q 507 978 535 972 q 461 999 479 984 q 425 1039 443 1015 q 381 1062 407 1063 q 339 1042 355 1061 q 321 972 323 1023 l 241 972 z "},"ö":{"ha":949,"x_min":68,"x_max":882,"o":"m 519 0 q 804 107 726 0 q 882 409 881 215 l 882 541 q 804 842 881 734 q 519 949 726 949 l 431 949 q 146 842 223 949 q 68 541 68 734 l 68 409 q 146 107 68 215 q 431 0 223 0 l 519 0 m 487 781 q 605 756 564 781 q 666 663 647 732 q 684 541 684 595 l 684 409 q 666 286 684 355 q 605 193 647 218 q 487 168 564 168 l 463 168 q 344 193 386 168 q 284 286 302 218 q 265 409 265 355 l 265 541 q 284 663 265 595 q 344 756 302 732 q 463 781 386 781 l 487 781 m 409 983 l 409 1152 l 260 1152 l 260 983 l 409 983 m 701 983 l 701 1152 l 552 1152 l 552 983 l 701 983 z "},"ø":{"ha":949,"x_min":-37,"x_max":987,"o":"m 519 0 q 804 107 726 0 q 882 409 881 215 l 882 541 q 804 842 881 734 q 519 949 726 949 l 431 949 q 146 842 223 949 q 68 541 68 734 l 68 409 q 146 107 68 215 q 431 0 223 0 l 519 0 m 487 781 q 605 756 564 781 q 666 663 647 732 q 684 541 684 595 l 684 409 q 666 286 684 355 q 605 193 647 218 q 487 168 564 168 l 463 168 q 344 193 386 168 q 284 286 302 218 q 265 409 265 355 l 265 541 q 284 663 265 595 q 344 756 302 732 q 463 781 386 781 l 487 781 m 151 0 l 987 949 l 800 949 l -37 0 l 151 0 z "},"ù":{"ha":949,"x_min":68,"x_max":882,"o":"m 684 949 l 684 409 q 666 286 684 355 q 605 193 647 218 q 487 168 564 168 l 463 168 q 344 193 386 168 q 284 286 302 218 q 265 409 265 355 l 265 949 l 68 949 l 68 409 q 146 107 68 215 q 431 0 223 0 l 519 0 q 804 107 726 0 q 882 409 881 215 l 882 949 l 684 949 m 522 972 l 444 972 l 275 1164 l 454 1164 l 522 972 z "},"ú":{"ha":949,"x_min":68,"x_max":882,"o":"m 684 949 l 684 409 q 666 286 684 355 q 605 193 647 218 q 487 168 564 168 l 463 168 q 344 193 386 168 q 284 286 302 218 q 265 409 265 355 l 265 949 l 68 949 l 68 409 q 146 107 68 215 q 431 0 223 0 l 519 0 q 804 107 726 0 q 882 409 881 215 l 882 949 l 684 949 m 501 1164 l 681 1164 l 511 972 l 434 972 l 501 1164 z "},"û":{"ha":949,"x_min":68,"x_max":882,"o":"m 684 949 l 684 409 q 666 286 684 355 q 605 193 647 218 q 487 168 564 168 l 463 168 q 344 193 386 168 q 284 286 302 218 q 265 409 265 355 l 265 949 l 68 949 l 68 409 q 146 107 68 215 q 431 0 223 0 l 519 0 q 804 107 726 0 q 882 409 881 215 l 882 949 l 684 949 m 315 972 l 472 1164 l 632 972 l 553 972 l 472 1057 l 395 972 l 315 972 z "},"ü":{"ha":949,"x_min":68,"x_max":882,"o":"m 684 949 l 684 409 q 666 286 684 355 q 605 193 647 218 q 487 168 564 168 l 463 168 q 344 193 386 168 q 284 286 302 218 q 265 409 265 355 l 265 949 l 68 949 l 68 409 q 146 107 68 215 q 431 0 223 0 l 519 0 q 804 107 726 0 q 882 409 881 215 l 882 949 l 684 949 m 409 983 l 409 1152 l 260 1152 l 260 983 l 409 983 m 701 983 l 701 1152 l 552 1152 l 552 983 l 701 983 z "},"ý":{"ha":746,"x_min":32,"x_max":711,"o":"m 273 420 l 32 949 l 220 949 l 372 608 l 524 949 l 711 949 l 471 420 l 471 0 l 273 0 l 273 420 m 395 1164 l 575 1164 l 405 972 l 328 972 l 395 1164 z "},"þ":{"ha":877,"x_min":68,"x_max":808,"o":"m 446 170 q 730 277 653 170 q 808 467 808 385 l 808 487 q 730 683 808 576 q 446 791 653 791 l 265 791 l 265 949 l 68 949 l 68 0 l 265 0 l 265 170 l 446 170 m 414 623 q 532 598 490 623 q 592 547 574 573 q 611 487 611 521 l 611 467 q 592 410 611 433 q 532 362 574 387 q 414 338 490 338 l 265 338 l 265 623 l 414 623 z "},"ÿ":{"ha":746,"x_min":32,"x_max":711,"o":"m 273 420 l 32 949 l 220 949 l 372 608 l 524 949 l 711 949 l 471 420 l 471 0 l 273 0 l 273 420 m 304 983 l 304 1152 l 156 1152 l 156 983 l 304 983 m 597 983 l 597 1152 l 448 1152 l 448 983 l 597 983 z "},"‘":{"ha":271,"x_min":37,"x_max":235,"o":"m 136 1038 q 37 869 52 987 l 37 694 l 235 694 l 235 869 l 136 869 l 136 1038 z "},"’":{"ha":271,"x_min":37,"x_max":235,"o":"m 136 526 q 235 694 220 576 l 235 869 l 37 869 l 37 694 l 136 694 l 136 526 z "},"‚":{"ha":271,"x_min":37,"x_max":235,"o":"m 136 -169 q 235 0 220 -119 l 235 174 l 37 174 l 37 0 l 136 0 l 136 -169 z "},"“":{"ha":543,"x_min":37,"x_max":506,"o":"m 136 1038 q 37 869 52 987 l 37 694 l 235 694 l 235 869 l 136 869 l 136 1038 m 408 1038 q 309 869 323 987 l 309 694 l 506 694 l 506 869 l 408 869 l 408 1038 z "},"”":{"ha":543,"x_min":37,"x_max":506,"o":"m 407 526 q 506 694 491 576 l 506 869 l 309 869 l 309 694 l 407 694 l 407 526 m 136 526 q 235 694 220 576 l 235 869 l 37 869 l 37 694 l 136 694 l 136 526 z "},"„":{"ha":543,"x_min":37,"x_max":506,"o":"m 407 -169 q 506 0 491 -119 l 506 174 l 309 174 l 309 0 l 407 0 l 407 -169 m 136 -169 q 235 0 220 -119 l 235 174 l 37 174 l 37 0 l 136 0 l 136 -169 z "},"⁄":{"ha":640,"x_min":32,"x_max":605,"o":"m 32 0 l 417 949 l 605 949 l 220 0 l 32 0 z "},"₣":{"ha":746,"x_min":-3,"x_max":678,"o":"m 435 146 l 435 315 l 265 315 l 265 398 l 610 398 l 610 562 l 266 562 q 284 663 269 608 q 344 756 302 732 q 463 781 386 781 l 678 781 l 678 949 l 431 949 q 146 842 223 949 q 68 541 68 734 l 68 315 l -3 315 l -3 146 l 68 146 l 68 0 l 265 0 l 265 146 l 435 146 z "},"€":{"ha":765,"x_min":2,"x_max":708,"o":"m 36 613 l 2 489 l 98 489 l 98 436 l 36 436 l 2 312 l 104 312 q 176 108 119 186 q 460 0 253 0 l 708 0 l 708 168 l 492 168 q 374 193 416 168 q 314 286 332 218 q 307 312 310 299 l 549 312 l 583 436 l 295 436 l 295 489 l 549 489 l 583 613 l 302 613 q 314 663 307 637 q 374 756 332 732 q 492 781 416 781 l 708 781 l 708 949 l 460 949 q 176 842 253 949 q 101 613 113 755 l 36 613 z "},"№":{"ha":1308,"x_min":68,"x_max":1255,"o":"m 265 809 l 265 0 l 68 0 l 68 949 l 403 949 l 577 144 l 577 949 l 774 949 l 774 0 l 437 0 l 265 809 m 848 264 l 848 433 l 1255 433 l 1255 264 l 848 264 m 880 688 q 880 789 880 688 q 1046 890 880 890 q 1213 688 1213 890 q 1046 486 1213 486 q 880 688 880 486 m 1022 759 q 1018 749 1022 759 q 1015 689 1015 739 q 1022 618 1015 640 q 1046 597 1028 597 q 1070 618 1064 597 q 1076 689 1076 640 q 1070 759 1076 739 q 1046 779 1064 779 q 1022 759 1028 779 z "},"™":{"ha":643,"x_min":68,"x_max":595,"o":"m 68 924 l 68 974 l 279 974 l 279 924 l 201 924 l 201 696 l 146 696 l 146 924 l 68 924 m 355 923 l 355 696 l 298 696 l 298 974 l 401 974 l 446 736 l 492 974 l 595 974 l 595 696 l 538 696 l 538 927 l 486 696 l 407 696 l 355 923 z "}}}
